<?xml version="1.0" encoding="UTF-8" standalone="no"?>
<!DOCTYPE svg PUBLIC "-//W3C//DTD SVG 1.1//EN"
 "http://www.w3.org/Graphics/SVG/1.1/DTD/svg11.dtd">
<!-- Generated by graphviz version 2.38.0 (20140413.2041)
 -->
<!-- Title: G Pages: 1 -->
<svg width="158pt" height="258pt"
 viewBox="0.00 0.00 158.00 258.00" xmlns="http://www.w3.org/2000/svg" xmlns:xlink="http://www.w3.org/1999/xlink">
<g id="graph0" class="graph" transform="scale(1 1) rotate(0) translate(4 254)">
<title>G</title>
<polygon fill="white" stroke="none" points="-4,4 -4,-254 154,-254 154,4 -4,4"/>
<g id="clust1" class="cluster"><title>cluster_Global</title>
<path fill="none" stroke="gray" d="M20,-8C20,-8 130,-8 130,-8 136,-8 142,-14 142,-20 142,-20 142,-230 142,-230 142,-236 136,-242 130,-242 130,-242 20,-242 20,-242 14,-242 8,-236 8,-230 8,-230 8,-20 8,-20 8,-14 14,-8 20,-8"/>
<text text-anchor="middle" x="75" y="-229.2" font-family="Times New Roman,serif" font-size="11.00" fill="gray">Global</text>
</g>
<!-- \\PorterStemmer -->
<g id="node1" class="node"><title>\\PorterStemmer</title>
<polygon fill="none" stroke="black" points="127,-214 23,-214 23,-178 127,-178 127,-214"/>
<text text-anchor="middle" x="75" y="-193.2" font-family="Courier,monospace" font-size="11.00">PorterStemmer</text>
</g>
<!-- \\WP_Elements_Als -->
<g id="node2" class="node"><title>\\WP_Elements_Als</title>
<polygon fill="none" stroke="black" points="134,-160 16,-160 16,-124 134,-124 134,-160"/>
<text text-anchor="middle" x="75" y="-139.2" font-family="Courier,monospace" font-size="11.00">WP_Elements_Als</text>
</g>
<!-- \\ajaxLiveSearch -->
<g id="node3" class="node"><title>\\ajaxLiveSearch</title>
<polygon fill="none" stroke="black" points="130.5,-106 19.5,-106 19.5,-70 130.5,-70 130.5,-106"/>
<text text-anchor="middle" x="75" y="-85.2" font-family="Courier,monospace" font-size="11.00">ajaxLiveSearch</text>
</g>
<!-- \\alsSearch -->
<g id="node4" class="node"><title>\\alsSearch</title>
<polygon fill="none" stroke="black" points="113.5,-52 36.5,-52 36.5,-16 113.5,-16 113.5,-52"/>
<text text-anchor="middle" x="75" y="-31.2" font-family="Courier,monospace" font-size="11.00">alsSearch</text>
</g>
</g>
</svg>
